<?xml version="1.0" encoding="UTF-8"?>
<!-- Created with Inkscape (http://www.inkscape.org/) -->
<svg width="149.82mm" height="149.82mm" inkscape:version="1.3 (0e150ed6c4, 2023-07-21)" sodipodi:docname="drawing.svg" version="1.1" viewBox="0 0 149.82 149.82" xml:space="preserve" xmlns="http://www.w3.org/2000/svg" xmlns:inkscape="http://www.inkscape.org/namespaces/inkscape" xmlns:sodipodi="http://sodipodi.sourceforge.net/DTD/sodipodi-0.dtd"><sodipodi:namedview bordercolor="#eeeeee" borderopacity="1" inkscape:current-layer="layer1" inkscape:cx="283.59371" inkscape:cy="283.59371" inkscape:deskcolor="#505050" inkscape:document-units="mm" inkscape:pagecheckerboard="0" inkscape:pageopacity="0" inkscape:showpageshadow="0" inkscape:window-height="1046" inkscape:window-maximized="1" inkscape:window-width="1825" inkscape:window-x="84" inkscape:window-y="-11" inkscape:zoom="0.91680454" pagecolor="#505050"/><g transform="translate(-29.976 -73.591)" inkscape:groupmode="layer" inkscape:label="Layer 1"><circle cx="104.88" cy="148.5" r="74.909" fill="#fff" stroke-linecap="round" stroke-linejoin="round" stroke-width=".5" style="paint-order:stroke fill markers"/><g transform="matrix(1.4547 0 0 1.4547 -111.32 -6.2934)"><path d="m108.68 106.4c0.26459-21.849 17.989-39.477 39.817-39.477v0c17.047 0 31.591 10.751 37.271 25.868" color="#000000" fill="none" stroke="#333" stroke-linecap="round" stroke-linejoin="round" stroke-width=".5" style="paint-order:stroke fill markers"/><path d="m188.29 105.24c0.0225 0.55194 0.0339 1.1068 0.0339 1.6643 0 22.078-17.827 39.973-39.82 39.973-10.783 0-20.564-4.3014-27.734-11.288" color="#000000" fill="none" stroke="#333" stroke-linecap="round" stroke-linejoin="round" stroke-width=".5" style="paint-order:stroke fill markers"/><g><path d="m153.74 81.734c-0.68746 0.56153-1.3211 1.1882-1.9363 1.8281-1.6241 1.6894-4.6212 5.298-4.6212 5.298s-3.2738 4.161-3.4268 4.1916c-0.15298 0.0306-4.0999 5.2319-4.0999 5.2319l-7.1594 9.7754-7.6949 11.718s-4.1373 6.3556-6.5322 9.2859c-0.73276 0.89655-1.5212 1.7547-2.3865 2.5242-0.48469 0.43105-0.96279 0.91048-1.5604 1.1626-0.44722 0.18871-0.96683 0.34609-1.438 0.22947-0.32175-0.0796-0.58987-0.33665-0.79549-0.59662-0.40374-0.51047-0.61883-1.1594-0.7802-1.7899-0.1828-0.71427-0.19475-1.4656-0.19887-2.2029-9e-3 -1.6829 0.18891-3.3631 0.39775-5.033 0.28058-2.2435 1.1473-6.6852 1.1473-6.6852l2.2182-8.7963 2.9219-9.3777s2.7795-7.6941 4.3752-11.458c0.26738-0.63072 0.55598-1.2531 0.87013-1.8619 0.17458-0.33831 0.32311-0.69811 0.56312-0.99363 0.32266-0.39728 0.68045-0.81632 1.1522-1.0149 0.18852-0.07937 0.42789-0.13518 0.61192-0.04589 0.28757 0.13954 0.40993 0.50153 0.53543 0.7955 0.15984 0.37439 0.28886 0.78718 0.26006 1.1932-0.0165 0.23337-0.11749 0.46151-0.24477 0.65782-0.22167 0.34189-0.60642 0.54764-0.87198 0.85669-0.22137 0.25762-0.43636 0.5266-0.59662 0.82609-3.7087 6.9305-8.2457 22.093-8.2457 22.093s-2.0635 7.5448-2.8125 11.38c-0.2514 1.2872-0.44453 2.588-0.5625 3.8942-0.1415 1.5668-0.17307 4.7164-0.17307 4.7164s0.0394 0.61862 0.10817 0.91947c0.0493 0.21567 0.0965 0.44149 0.21635 0.62741 0.14791 0.22937 0.34037 0.46414 0.59495 0.5625 0.1682 0.065 0.36662 0.0357 0.54086-0.0108 0.22842-0.0609 0.43136-0.20094 0.62199-0.34074 0.43907-0.32198 0.81527-0.72534 1.1791-1.1304 1.5245-1.6975 4.1809-5.4195 4.1809-5.4195s13.681-20.495 21.149-30.284c1.426-1.8694 4.51-5.4235 4.51-5.4235s3.5755-4.0679 5.5385-5.9279c0.92895-0.88025 1.8817-1.7501 2.9423-2.4663 0.44247-0.29881 1.351-0.73588 1.5582-0.83436 0.0276-0.0131 0.0337-0.0079 0.0479-5.7e-4 0.0119 0.0061 0.0228 0.0329 0.0228 0.0329s0.0259 0.03441 0.0292 0.05486c3e-3 0.02038-0.0104 0.06106-0.0104 0.06106" style="paint-order:stroke fill markers" sodipodi:nodetypes="cacscccaaaaaaaacccaaaaaaaaaacaacaaaaaacacassacac"/><path d="m160.72 97.99s15.243-0.37787 22.825 0.25725c0.55044 0.04611 1.637 0.25725 1.637 0.25725s0.59523 0.07401 0.7922 0.27186c0.10087 0.10133 0.13758 0.26336 0.1374 0.40633-1.7e-4 0.13589-0.0487 0.27816-0.13155 0.38587-0.0728 0.09468-0.18056 0.17786-0.29817 0.19878-0.22989 0.0409-0.46748-0.06946-0.68112-0.1637-0.13995-0.06174-0.2356-0.20682-0.38002-0.25725-0.67171-0.23453-2.1281-0.1637-2.1281-0.1637l-7.1561-0.07016-15.271-0.07016-7.4134 13.353-2.0346 3.999-3.9435 8.7464s-0.17221 0.44553-0.16172 0.67745c9e-3 0.19482 0.0914 0.38429 0.18666 0.55447 0.09 0.1609 0.27891 0.25644 0.35453 0.4246 0.0545 0.12112 0.0999 0.26752 0.0593 0.39396-0.0471 0.14661-0.18351 0.26367-0.32179 0.3314-0.19955 0.0978-0.44688 0.12731-0.66254 0.0737-0.15209-0.0378-0.28636-0.14583-0.38861-0.26458-0.10778-0.12517-0.1705-0.28741-0.21497-0.44649-0.0578-0.20667-0.0754-0.42661-0.062-0.64079 0.0153-0.2439 0.0911-0.48108 0.16118-0.7152 0.0785-0.26237 0.28939-0.76894 0.28939-0.76894l1.3773-3.5134 2.4263-5.1332 1.2745-2.6426 5.0982-9.9859 2.2451-4.2563-3.087 0.02339s-2.3228 0.10094-3.4845 0.14032c-0.84953 0.02879-1.6997 0.03709-2.5491 0.07016-1.0841 0.04221-2.1768 0.0089-3.2507 0.1637-0.62691 0.09037-1.2365 0.2773-1.8475 0.44434-0.71773 0.19623-1.3939 0.57802-2.134 0.65482-0.68321 0.0709-1.4301 0.10433-2.0521-0.1871-0.13976-0.0655-0.27342-0.18282-0.32741-0.32741-0.0474-0.12697-0.0436-0.29094 0.0287-0.40558 0.0897-0.14234 0.2806-0.1925 0.43903-0.24922 0.99061-0.35462 3.1104-0.53788 3.1104-0.53788s2.0551-0.24957 3.087-0.3274c4.1551-0.31343 12.488-0.56127 12.488-0.56127l2.4322-3.9756 1.1693-1.6604s0.45464-0.56999 0.77175-0.72497c0.22684-0.11086 0.5007-0.16608 0.74835-0.11693 0.20588 0.04086 0.46394 0.13097 0.53788 0.32741 0.0874 0.23225-0.22283 0.71035-0.22283 0.71035" style="paint-order:stroke fill markers" sodipodi:nodetypes="cacaaaaaaccccccaaaaaaaaaacccccccaaaaaaaaacacccaaac"/><path d="m139.81 110.5c-0.1074 8.7e-4 -0.21415 6e-3 -0.31678 0.0114-0.40796 0.0212-0.81554 0.1447-1.1808 0.32763-0.42731 0.21401-0.79308 0.54233-1.1343 0.87695-0.52152 0.51146-1.018 1.0691-1.3741 1.7069-0.19049 0.34122-0.32001 0.72121-0.39171 1.1054-0.0504 0.27024-0.12184 0.56764-0.0232 0.82424 0.0425 0.11065 0.13521 0.21379 0.24546 0.25735 0.30083 0.11886 0.65126 7e-3 0.96893-0.0548 0.35703-0.0685 0.698-0.2073 1.034-0.34571 0.28515-0.11745 0.56108-0.25789 0.82953-0.40969 0.32653-0.18465 0.64633-0.38365 0.94711-0.60782 0.17727-0.13211 0.34568-0.27697 0.50281-0.43253 0.18156-0.17973 0.74574-0.79347 0.74574-0.79347s-0.21468 0.50127-0.30494 0.75833c-0.12763 0.36346-0.25488 0.73814-0.33383 1.1064-0.0702 0.32723-0.16491 0.65495-0.16795 0.9896-2e-3 0.26017 0.0103 0.53414 0.11679 0.77153 0.10703 0.23856 0.28909 0.45077 0.50126 0.60358 0.26075 0.1878 0.58051 0.30065 0.89814 0.34934 0.43358 0.0665 0.87937-0.0217 1.3131-0.0873 0.49917-0.0755 0.99674-0.18431 1.4733-0.35088 0.72753-0.25429 1.4197-0.60813 2.0934-0.98237 1.7552-0.97497 5.0534-3.2773 5.0534-3.2773l0.17208-0.33641 0.0346-0.0682s-3.7052 2.2995-5.6581 3.2613c-0.4955 0.24402-1.0072 0.45736-1.5306 0.63356-0.46239 0.15563-0.9351 0.28949-1.4159 0.37207-0.46257 0.0794-0.93717 0.17405-1.403 0.11679-0.2043-0.0251-0.42623-0.0673-0.58446-0.19896-0.17169-0.14287-0.29527-0.36346-0.32763-0.58446-0.0596-0.40701 0.11893-0.8097 0.23415-1.2046 0.14402-0.49357 0.19387-0.59177 0.3039-0.88293 0.17298-0.45772 0.37953-0.90212 0.55969-1.3571 0.15916-0.40191 0.50386-0.78225 0.46043-1.2123-0.0126-0.12499-0.093-0.25521-0.20156-0.31847-0.10458-0.0609-0.24563-0.0485-0.3627-0.0177-0.20492 0.0539-0.35833 0.2855-0.53761 0.33912-0.0897 0.0268 0.0766 0.0539 0 0 0.0398-0.24784-0.13746-0.52338-0.33951-0.67231-0.24817-0.18292-0.57698-0.21861-0.89917-0.21601zm-0.0884 1.0924c0.0715-8e-4 0.14126 9e-3 0.20722 0.0357 0.12389 0.0495 0.22424 0.17585 0.25994 0.30438 0.0254 0.0914-0.0113 0.1926-0.0465 0.2806-0.0735 0.18367-0.19805 0.34656-0.33332 0.49092-0.30812 0.32884-0.72499 0.64322-1.0919 0.90485-0.29642 0.21136-0.56014 0.36764-0.88988 0.52194-0.18648 0.0872-0.3848 0.17787-0.59066 0.18087-0.0747 1e-3 -0.16542-4e-3 -0.21652-0.0584-0.0596-0.0638-0.0668-0.17105-0.0522-0.25734 0.06-0.35544 0.33092-0.64527 0.55242-0.92966 0.24089-0.30929 0.52376-0.589 0.83303-0.82993 0.27513-0.21433 0.56673-0.42773 0.89762-0.53795 0.14824-0.0496 0.31341-0.10417 0.47077-0.10594z" style="paint-order:stroke fill markers" sodipodi:nodetypes="scssscsscaaascacccscssscccsscssssaaaaaccssssccssccccsscscs"/><path d="m161.8 110.5c-0.1074 8.7e-4 -0.21415 6e-3 -0.31678 0.0114-0.40796 0.0212-0.81554 0.1447-1.1808 0.32763-0.42731 0.21401-0.79308 0.54233-1.1343 0.87695-0.52152 0.51146-1.018 1.0691-1.3741 1.7069-0.19049 0.34122-0.32001 0.72121-0.39171 1.1054-0.0504 0.27024-0.12184 0.56764-0.0232 0.82424 0.0425 0.11065 0.13521 0.21379 0.24546 0.25735 0.30083 0.11886 0.65126 7e-3 0.96893-0.0548 0.35703-0.0685 0.698-0.2073 1.034-0.34571 0.28515-0.11745 0.56108-0.25789 0.82953-0.40969 0.32653-0.18465 0.64633-0.38365 0.94711-0.60782 0.17727-0.13211 0.34568-0.27697 0.50281-0.43253 0.18156-0.17973 0.74574-0.79347 0.74574-0.79347s-0.21468 0.50127-0.30494 0.75833c-0.12763 0.36346-0.25488 0.73814-0.33383 1.1064-0.0702 0.32723-0.16491 0.65495-0.16795 0.9896-2e-3 0.26017 0.0103 0.53414 0.11679 0.77153 0.10703 0.23856 0.28909 0.45077 0.50126 0.60358 0.26075 0.1878 0.58051 0.30065 0.89814 0.34934 0.43358 0.0665 0.87937-0.0217 1.3131-0.0873 0.49917-0.0755 0.99674-0.18431 1.4733-0.35088 0.72753-0.25429 1.4197-0.60813 2.0934-0.98237 1.7552-0.97497 5.0534-3.2773 5.0534-3.2773l0.17208-0.33641 0.0346-0.0682s-3.7052 2.2995-5.6581 3.2613c-0.4955 0.24402-1.0072 0.45736-1.5306 0.63356-0.46239 0.15563-0.9351 0.28949-1.4159 0.37207-0.46257 0.0794-0.93717 0.17405-1.403 0.11679-0.2043-0.0251-0.42623-0.0673-0.58446-0.19896-0.17169-0.14287-0.29527-0.36346-0.32763-0.58446-0.0596-0.40701 0.11893-0.8097 0.23415-1.2046 0.14402-0.49357 0.19387-0.59177 0.3039-0.88293 0.17298-0.45772 0.37953-0.90212 0.55969-1.3571 0.15916-0.40191 0.50386-0.78225 0.46043-1.2123-0.0126-0.12499-0.093-0.25521-0.20156-0.31847-0.10458-0.0609-0.24563-0.0485-0.3627-0.0177-0.20492 0.0539-0.35833 0.2855-0.53761 0.33912-0.0897 0.0268 0.0766 0.0539 0 0 0.0398-0.24784-0.13746-0.52338-0.33951-0.67231-0.24817-0.18292-0.57698-0.21861-0.89917-0.21601zm-0.0884 1.0924c0.0715-8e-4 0.14126 9e-3 0.20722 0.0357 0.12389 0.0495 0.22424 0.17585 0.25994 0.30438 0.0254 0.0914-0.0113 0.1926-0.0465 0.2806-0.0735 0.18367-0.19805 0.34656-0.33332 0.49092-0.30812 0.32884-0.69192 0.60602-1.0588 0.86765-0.29642 0.21136-0.59321 0.40484-0.92295 0.55914-0.18648 0.0872-0.3848 0.17787-0.59066 0.18087-0.0747 1e-3 -0.16542-4e-3 -0.21652-0.0584-0.0596-0.0638-0.0668-0.17105-0.0522-0.25734 0.06-0.35544 0.33092-0.64527 0.55242-0.92966 0.24089-0.30929 0.52376-0.589 0.83303-0.82993 0.27513-0.21433 0.56673-0.42773 0.89762-0.53795 0.14824-0.0496 0.31341-0.10417 0.47077-0.10594z" style="paint-order:stroke fill markers" sodipodi:nodetypes="scssscsscaaascacccscssscccsscssssaaaaaccssssccssccccsscscs"/></g><path d="m194.93 106.41a46.312 45.932 0 0 1-46.312 45.932 46.312 45.932 0 0 1-46.312-45.932 46.312 45.932 0 0 1 46.312-45.932 46.312 45.932 0 0 1 46.312 45.932z" fill="none" stroke="#000" stroke-linecap="round" stroke-linejoin="round" stroke-width=".49794" style="paint-order:stroke fill markers"/></g></g></svg>
