<?xml version="1.0" encoding="UTF-8" standalone="no"?>
<!-- Created with Inkscape (http://www.inkscape.org/) -->

<svg
   width="135.46666mm"
   height="134.36101mm"
   viewBox="0 0 135.46666 134.36101"
   version="1.1"
   id="svg1"
   xml:space="preserve"
   inkscape:version="1.3 (0e150ed6c4, 2023-07-21)"
   sodipodi:docname="ДЩПЩ.svg"
   xmlns:inkscape="http://www.inkscape.org/namespaces/inkscape"
   xmlns:sodipodi="http://sodipodi.sourceforge.net/DTD/sodipodi-0.dtd"
   xmlns="http://www.w3.org/2000/svg"
   xmlns:svg="http://www.w3.org/2000/svg"><sodipodi:namedview
     id="namedview1"
     pagecolor="#fcfcfc"
     bordercolor="#eeeeee"
     borderopacity="1"
     inkscape:showpageshadow="0"
     inkscape:pageopacity="0"
     inkscape:pagecheckerboard="0"
     inkscape:deskcolor="#505050"
     inkscape:document-units="mm"
     inkscape:zoom="1"
     inkscape:cx="96"
     inkscape:cy="145"
     inkscape:window-width="1825"
     inkscape:window-height="1046"
     inkscape:window-x="84"
     inkscape:window-y="-11"
     inkscape:window-maximized="1"
     inkscape:current-layer="layer1"
     showguides="false" /><defs
     id="defs1"><clipPath
       clipPathUnits="userSpaceOnUse"
       id="clipPath1"><ellipse
         style="opacity:0.886555;fill:#ff0000;stroke-width:0.205876;stroke-linecap:round;stroke-linejoin:round;paint-order:stroke fill markers"
         id="ellipse1"
         cx="148.62239"
         cy="106.40742"
         rx="46.237915"
         ry="45.931957" /></clipPath></defs><g
     inkscape:label="Layer 1"
     inkscape:groupmode="layer"
     id="layer1"
     transform="translate(-102.06143,-60.226482)"><g
       id="g14"
       transform="matrix(1.4547238,0,0,1.4547238,-46.409769,-27.386418)"><path
         id="path1"
         style="color:#000000;display:inline;fill:none;stroke:#333333;stroke-width:0.5;stroke-linecap:round;stroke-linejoin:round;stroke-dasharray:none;paint-order:stroke fill markers"
         d="M 108.68269,106.40445 C 108.94728,84.55525 126.67206,66.927734 148.5,66.927734 v 0 c 17.04674,0 31.59099,10.750995 37.27067,25.867692" /><path
         id="path9"
         style="color:#000000;display:inline;fill:none;stroke:#333333;stroke-width:0.5;stroke-linecap:round;stroke-linejoin:round;stroke-dasharray:none;paint-order:stroke fill markers"
         d="m 188.28643,105.23613 c 0.0225,0.55194 0.0339,1.10677 0.0339,1.66426 0,22.07778 -17.82746,39.97266 -39.82031,39.97266 -10.78251,0 -20.56381,-4.30136 -27.73384,-11.28816" /><path
         style="opacity:1;fill:#000000;stroke:none;stroke-width:0.499999;stroke-linecap:round;stroke-linejoin:round;stroke-dasharray:none;paint-order:stroke fill markers"
         d="m 153.74283,81.733597 c -0.68746,0.561534 -1.32112,1.188222 -1.9363,1.828125 -1.62409,1.689361 -4.62124,5.297987 -4.62124,5.297987 0,0 -3.27377,4.161049 -3.42675,4.191646 -0.15298,0.0306 -4.09986,5.23191 -4.09986,5.23191 l -7.15945,9.775405 -7.69489,11.71826 c 0,0 -4.13733,6.35562 -6.53224,9.28587 -0.73276,0.89655 -1.52124,1.75468 -2.38648,2.52417 -0.48469,0.43105 -0.96279,0.91048 -1.5604,1.16265 -0.44722,0.18871 -0.96683,0.34609 -1.43801,0.22947 -0.32175,-0.0796 -0.58987,-0.33665 -0.79549,-0.59662 -0.40374,-0.51047 -0.61883,-1.15935 -0.7802,-1.78987 -0.1828,-0.71427 -0.19475,-1.46563 -0.19887,-2.20291 -0.009,-1.68288 0.18891,-3.36313 0.39775,-5.03303 0.28058,-2.24351 1.14734,-6.68522 1.14734,-6.68522 l 2.21821,-8.79634 2.92192,-9.377662 c 0,0 2.77949,-7.694097 4.37522,-11.458189 0.26738,-0.630719 0.55598,-1.253096 0.87013,-1.861874 0.17458,-0.338313 0.32311,-0.698114 0.56312,-0.993629 0.32266,-0.397284 0.68045,-0.816316 1.15215,-1.014917 0.18852,-0.07937 0.42789,-0.135184 0.61192,-0.04589 0.28757,0.139536 0.40993,0.501531 0.53543,0.795496 0.15984,0.374391 0.28886,0.787178 0.26006,1.193242 -0.0165,0.233373 -0.11749,0.461508 -0.24477,0.657815 -0.22167,0.341891 -0.60642,0.547643 -0.87198,0.856686 -0.22137,0.257623 -0.43636,0.526605 -0.59662,0.82609 -3.7087,6.930489 -8.24572,22.092602 -8.24572,22.092602 0,0 -2.06353,7.54485 -2.8125,11.3798 -0.2514,1.28723 -0.44453,2.588 -0.5625,3.89423 -0.1415,1.5668 -0.17307,4.71635 -0.17307,4.71635 0,0 0.0394,0.61862 0.10817,0.91947 0.0493,0.21567 0.0965,0.44149 0.21635,0.62741 0.14791,0.22937 0.34037,0.46414 0.59495,0.5625 0.1682,0.065 0.36662,0.0357 0.54086,-0.0108 0.22842,-0.0609 0.43136,-0.20094 0.62199,-0.34074 0.43907,-0.32198 0.81527,-0.72534 1.17909,-1.13042 1.52454,-1.69746 4.18089,-5.41946 4.18089,-5.41946 0,0 13.68105,-20.49485 21.14867,-30.284441 1.42602,-1.869419 4.50999,-5.42349 4.50999,-5.42349 0,0 3.57554,-4.067872 5.53846,-5.927884 0.92895,-0.880248 1.88174,-1.75012 2.94231,-2.466345 0.44247,-0.298808 1.35105,-0.735875 1.55825,-0.834363 0.0276,-0.0131 0.0337,-0.0079 0.0479,-5.7e-4 0.0119,0.0061 0.0228,0.0329 0.0228,0.0329 0,0 0.0259,0.03441 0.0292,0.05486 0.003,0.02038 -0.0104,0.06106 -0.0104,0.06106"
         id="path10"
         sodipodi:nodetypes="cacscccaaaaaaaacccaaaaaaaaaacaacaaaaaacacassacac" /><path
         style="opacity:1;fill:#000000;stroke:none;stroke-width:0.499999;stroke-linecap:round;stroke-linejoin:round;stroke-dasharray:none;paint-order:stroke fill markers"
         d="m 160.71889,97.990195 c 0,0 15.24262,-0.37787 22.82482,0.257247 0.55044,0.04611 1.63702,0.257246 1.63702,0.257246 0,0 0.59523,0.07401 0.7922,0.271863 0.10087,0.101328 0.13758,0.263355 0.1374,0.406333 -1.7e-4,0.135893 -0.0487,0.278157 -0.13155,0.385871 -0.0728,0.09468 -0.18056,0.177858 -0.29817,0.198782 -0.22989,0.0409 -0.46748,-0.06946 -0.68112,-0.163704 -0.13995,-0.06174 -0.2356,-0.206822 -0.38002,-0.257246 -0.67171,-0.234529 -2.12814,-0.163703 -2.12814,-0.163703 l -7.15614,-0.07016 -15.27111,-0.07016 -7.41339,13.353456 -2.03459,3.99902 -3.94347,8.74639 c 0,0 -0.17221,0.44553 -0.16172,0.67745 0.009,0.19482 0.0914,0.38429 0.18666,0.55447 0.09,0.1609 0.27891,0.25644 0.35453,0.4246 0.0545,0.12112 0.0999,0.26752 0.0593,0.39396 -0.0471,0.14661 -0.18351,0.26367 -0.32179,0.3314 -0.19955,0.0978 -0.44688,0.12731 -0.66254,0.0737 -0.15209,-0.0378 -0.28636,-0.14583 -0.38861,-0.26458 -0.10778,-0.12517 -0.1705,-0.28741 -0.21497,-0.44649 -0.0578,-0.20667 -0.0754,-0.42661 -0.062,-0.64079 0.0153,-0.2439 0.0911,-0.48108 0.16118,-0.7152 0.0785,-0.26237 0.28939,-0.76894 0.28939,-0.76894 l 1.37734,-3.5134 2.42631,-5.13324 1.27454,-2.64263 5.09817,-9.98586 2.24506,-4.256267 -3.08696,0.02339 c 0,0 -2.32275,0.100939 -3.48453,0.140317 -0.84953,0.02879 -1.69971,0.03709 -2.54908,0.07016 -1.08411,0.04221 -2.17684,0.0089 -3.25067,0.163703 -0.62691,0.09037 -1.23653,0.277298 -1.8475,0.444337 -0.71773,0.19623 -1.39392,0.57802 -2.13402,0.65482 -0.68321,0.0709 -1.43014,0.10433 -2.05213,-0.1871 -0.13976,-0.0655 -0.27342,-0.18282 -0.32741,-0.32741 -0.0474,-0.12697 -0.0436,-0.290939 0.0287,-0.405585 0.0897,-0.142345 0.2806,-0.192505 0.43903,-0.249222 0.99061,-0.354624 3.11035,-0.537882 3.11035,-0.537882 0,0 2.05513,-0.24957 3.08696,-0.327403 4.15512,-0.313429 12.48817,-0.561266 12.48817,-0.561266 l 2.43215,-3.975635 1.1693,-1.660414 c 0,0 0.45464,-0.569992 0.77175,-0.724966 0.22684,-0.110858 0.5007,-0.166075 0.74835,-0.116932 0.20588,0.04086 0.46394,0.130966 0.53788,0.327406 0.0874,0.232251 -0.22283,0.710352 -0.22283,0.710352"
         id="path11"
         sodipodi:nodetypes="cacaaaaaaccccccaaaaaaaaaacccccccaaaaaaaaacacccaaac" /><path
         id="path12"
         style="display:inline;opacity:1;fill:#000000;stroke:none;stroke-width:0.499999;stroke-linecap:round;stroke-linejoin:round;stroke-dasharray:none;paint-order:stroke fill markers"
         d="m 139.81268,110.50198 c -0.1074,8.7e-4 -0.21415,0.006 -0.31678,0.0114 -0.40796,0.0212 -0.81554,0.1447 -1.18081,0.32763 -0.42731,0.21401 -0.79308,0.54233 -1.13429,0.87695 -0.52152,0.51146 -1.01801,1.06907 -1.37408,1.70687 -0.19049,0.34122 -0.32001,0.72121 -0.39171,1.10536 -0.0504,0.27024 -0.12184,0.56764 -0.0232,0.82424 0.0425,0.11065 0.13521,0.21379 0.24546,0.25735 0.30083,0.11886 0.65126,0.007 0.96893,-0.0548 0.35703,-0.0685 0.698,-0.2073 1.03405,-0.34571 0.28515,-0.11745 0.56108,-0.25789 0.82953,-0.40969 0.32653,-0.18465 0.64633,-0.38365 0.94711,-0.60782 0.17727,-0.13211 0.34568,-0.27697 0.50281,-0.43253 0.18156,-0.17973 0.74574,-0.79347 0.74574,-0.79347 0,0 -0.21468,0.50127 -0.30494,0.75833 -0.12763,0.36346 -0.25488,0.73814 -0.33383,1.10639 -0.0702,0.32723 -0.16491,0.65495 -0.16795,0.9896 -0.002,0.26017 0.0103,0.53414 0.11679,0.77153 0.10703,0.23856 0.28909,0.45077 0.50126,0.60358 0.26075,0.1878 0.58051,0.30065 0.89814,0.34934 0.43358,0.0665 0.87937,-0.0217 1.31309,-0.0873 0.49917,-0.0755 0.99674,-0.18431 1.4733,-0.35088 0.72753,-0.25429 1.41969,-0.60813 2.09341,-0.98237 1.75519,-0.97497 5.05344,-3.27732 5.05344,-3.27732 l 0.17208,-0.33641 0.0346,-0.0682 c 0,0 -3.70515,2.29954 -5.65806,3.2613 -0.4955,0.24402 -1.00718,0.45736 -1.53065,0.63356 -0.46239,0.15563 -0.9351,0.28949 -1.41594,0.37207 -0.46257,0.0794 -0.93717,0.17405 -1.40301,0.11679 -0.2043,-0.0251 -0.42623,-0.0673 -0.58446,-0.19896 -0.17169,-0.14287 -0.29527,-0.36346 -0.32763,-0.58446 -0.0596,-0.40701 0.11893,-0.8097 0.23415,-1.20458 0.14402,-0.49357 0.19387,-0.59177 0.3039,-0.88293 0.17298,-0.45772 0.37953,-0.90212 0.55969,-1.35706 0.15916,-0.40191 0.50386,-0.78225 0.46043,-1.21234 -0.0126,-0.12499 -0.093,-0.25521 -0.20156,-0.31847 -0.10458,-0.0609 -0.24563,-0.0485 -0.3627,-0.0177 -0.20492,0.0539 -0.35833,0.2855 -0.53761,0.33912 -0.0897,0.0268 0.0766,0.0539 0,0 0.0398,-0.24784 -0.13746,-0.52338 -0.33951,-0.67231 -0.24817,-0.18292 -0.57698,-0.21861 -0.89917,-0.21601 z m -0.0884,1.09244 c 0.0715,-8e-4 0.14126,0.009 0.20722,0.0357 0.12389,0.0495 0.22424,0.17585 0.25994,0.30438 0.0254,0.0914 -0.0113,0.1926 -0.0465,0.2806 -0.0735,0.18367 -0.19805,0.34656 -0.33332,0.49092 -0.30812,0.32884 -0.72499,0.64322 -1.09191,0.90485 -0.29642,0.21136 -0.56014,0.36764 -0.88988,0.52194 -0.18648,0.0872 -0.3848,0.17787 -0.59066,0.18087 -0.0747,10e-4 -0.16542,-0.004 -0.21652,-0.0584 -0.0596,-0.0638 -0.0668,-0.17105 -0.0522,-0.25734 0.06,-0.35544 0.33092,-0.64527 0.55242,-0.92966 0.24089,-0.30929 0.52376,-0.589 0.83303,-0.82993 0.27513,-0.21433 0.56673,-0.42773 0.89762,-0.53795 0.14824,-0.0496 0.31341,-0.10417 0.47077,-0.10594 z"
         sodipodi:nodetypes="scssscsscaaascacccscssscccsscssssaaaaaccssssccssccccsscscs" /><path
         id="path13"
         style="display:inline;opacity:1;fill:#000000;stroke:none;stroke-width:0.499999;stroke-linecap:round;stroke-linejoin:round;stroke-dasharray:none;paint-order:stroke fill markers"
         d="m 161.7956,110.50198 c -0.1074,8.7e-4 -0.21415,0.006 -0.31678,0.0114 -0.40796,0.0212 -0.81554,0.1447 -1.18081,0.32763 -0.42731,0.21401 -0.79308,0.54233 -1.13429,0.87695 -0.52152,0.51146 -1.01801,1.06907 -1.37408,1.70687 -0.19049,0.34122 -0.32001,0.72121 -0.39171,1.10536 -0.0504,0.27024 -0.12184,0.56764 -0.0232,0.82424 0.0425,0.11065 0.13521,0.21379 0.24546,0.25735 0.30083,0.11886 0.65126,0.007 0.96893,-0.0548 0.35703,-0.0685 0.698,-0.2073 1.03405,-0.34571 0.28515,-0.11745 0.56108,-0.25789 0.82953,-0.40969 0.32653,-0.18465 0.64633,-0.38365 0.94711,-0.60782 0.17727,-0.13211 0.34568,-0.27697 0.50281,-0.43253 0.18156,-0.17973 0.74574,-0.79347 0.74574,-0.79347 0,0 -0.21468,0.50127 -0.30494,0.75833 -0.12763,0.36346 -0.25488,0.73814 -0.33383,1.10639 -0.0702,0.32723 -0.16491,0.65495 -0.16795,0.9896 -0.002,0.26017 0.0103,0.53414 0.11679,0.77153 0.10703,0.23856 0.28909,0.45077 0.50126,0.60358 0.26075,0.1878 0.58051,0.30065 0.89814,0.34934 0.43358,0.0665 0.87937,-0.0217 1.31309,-0.0873 0.49917,-0.0755 0.99674,-0.18431 1.4733,-0.35088 0.72753,-0.25429 1.41969,-0.60813 2.09341,-0.98237 1.75519,-0.97497 5.05344,-3.27732 5.05344,-3.27732 l 0.17208,-0.33641 0.0346,-0.0682 c 0,0 -3.70515,2.29954 -5.65806,3.2613 -0.4955,0.24402 -1.00718,0.45736 -1.53065,0.63356 -0.46239,0.15563 -0.9351,0.28949 -1.41594,0.37207 -0.46257,0.0794 -0.93717,0.17405 -1.40301,0.11679 -0.2043,-0.0251 -0.42623,-0.0673 -0.58446,-0.19896 -0.17169,-0.14287 -0.29527,-0.36346 -0.32763,-0.58446 -0.0596,-0.40701 0.11893,-0.8097 0.23415,-1.20458 0.14402,-0.49357 0.19387,-0.59177 0.3039,-0.88293 0.17298,-0.45772 0.37953,-0.90212 0.55969,-1.35706 0.15916,-0.40191 0.50386,-0.78225 0.46043,-1.21234 -0.0126,-0.12499 -0.093,-0.25521 -0.20156,-0.31847 -0.10458,-0.0609 -0.24563,-0.0485 -0.3627,-0.0177 -0.20492,0.0539 -0.35833,0.2855 -0.53761,0.33912 -0.0897,0.0268 0.0766,0.0539 0,0 0.0398,-0.24784 -0.13746,-0.52338 -0.33951,-0.67231 -0.24817,-0.18292 -0.57698,-0.21861 -0.89917,-0.21601 z m -0.0884,1.09244 c 0.0715,-8e-4 0.14126,0.009 0.20722,0.0357 0.12389,0.0495 0.22424,0.17585 0.25994,0.30438 0.0254,0.0914 -0.0113,0.1926 -0.0465,0.2806 -0.0735,0.18367 -0.19805,0.34656 -0.33332,0.49092 -0.30812,0.32884 -0.69192,0.60602 -1.05884,0.86765 -0.29642,0.21136 -0.59321,0.40484 -0.92295,0.55914 -0.18648,0.0872 -0.3848,0.17787 -0.59066,0.18087 -0.0747,10e-4 -0.16542,-0.004 -0.21652,-0.0584 -0.0596,-0.0638 -0.0668,-0.17105 -0.0522,-0.25734 0.06,-0.35544 0.33092,-0.64527 0.55242,-0.92966 0.24089,-0.30929 0.52376,-0.589 0.83303,-0.82993 0.27513,-0.21433 0.56673,-0.42773 0.89762,-0.53795 0.14824,-0.0496 0.31341,-0.10417 0.47077,-0.10594 z"
         sodipodi:nodetypes="scssscsscaaascacccscssscccsscssssaaaaaccssssccssccccsscscs" /><path
         id="path14"
         style="opacity:1;fill:none;stroke:#000000;stroke-width:0.497943;stroke-linecap:round;stroke-linejoin:round;paint-order:stroke fill markers"
         d="m 194.93438,106.40742 a 46.311985,45.931961 0 0 1 -46.31199,45.93196 46.311985,45.931961 0 0 1 -46.31198,-45.93196 46.311985,45.931961 0 0 1 46.31198,-45.931964 46.311985,45.931961 0 0 1 46.31199,45.931964 z" /></g></g></svg>
