<?xml version="1.0" encoding="UTF-8"?>
<!-- Created with Inkscape (http://www.inkscape.org/) -->
<svg width="512" height="512" inkscape:version="1.3 (0e150ed6c4, 2023-07-21)" sodipodi:docname="pot.svg" version="1.1" viewBox="0 0 135.47 135.47" xml:space="preserve" xmlns="http://www.w3.org/2000/svg" xmlns:inkscape="http://www.inkscape.org/namespaces/inkscape" xmlns:sodipodi="http://sodipodi.sourceforge.net/DTD/sodipodi-0.dtd"><sodipodi:namedview bordercolor="#eeeeee" borderopacity="1" inkscape:current-layer="g8" inkscape:cx="302.21684" inkscape:cy="266.23864" inkscape:deskcolor="#505050" inkscape:document-units="mm" inkscape:pagecheckerboard="0" inkscape:pageopacity="0" inkscape:showpageshadow="0" inkscape:window-height="1046" inkscape:window-maximized="1" inkscape:window-width="1825" inkscape:window-x="84" inkscape:window-y="-11" inkscape:zoom="1.5287037" pagecolor="#505050" showgrid="false"/><g transform="translate(-56.726,-99.212)" inkscape:groupmode="layer" inkscape:label="Layer 1"><path d="m124.79 99.211-9.9e-4 0.0016c-0.1713 2.83e-4 -0.22239 0.23557-0.3871 0.26537l-0.0387-0.10686a0.65203 0.64829 0 0 0-0.0428 0.16206c-0.92183 0.20228-1.8408 0.60177-2.1892 1.501-2e-3 4e-3 -2.118 5.347-2.9242 8.6537-1.5462 6.342-2.2353 12.757-2.9114 18.984-0.30983 2.854-0.46911 5.4952-0.67081 8.4187-0.76509-1.1428-1.9303-2.948-3.3153-4.5664-1.8678-2.1822-4.0516-4.2429-6.4509-5.9773-2.419-1.7487-5.0723-3.2496-7.9041-4.3613-2.3802-0.93429-5.9147-1.4895-5.9303-1.492-1.2268-0.2197-2.3358 0.3701-2.9114 1.2656-0.5756 0.89539-0.64712 2.1409 0.06876 3.1555 0 0 3.6782 5.2643 4.933 7.6065 1.0468 1.9535 1.8309 3.9995 2.6186 6.0371-0.33462-0.31026-0.62022-0.63162-0.98915-0.89793-2.105-1.5195-4.3526-2.9011-7.0178-3.9718-1.7974-0.7221-3.9897-1.1362-5.8575-1.4586-1.876-0.32362-3.4101-0.50844-3.4101-0.50844-1.4032-0.16639-2.5517 0.67723-2.9888 1.7614-0.43712 1.0842-0.19259 2.4788 0.93771 3.3222 0 0 0.60488 0.45396 1.3289 1.0518 0.71268 0.58856 1.6227 1.4563 1.7929 1.6677 1.7897 2.2234 3.1366 5.0716 4.4639 8.0769 1.5649 3.5431 2.7326 7.3432 3.7585 11.233 1.1943 4.5279 2.6007 12.918 2.9374 14.947-5.3784 0.12971-9.6333 4.6981-9.6333 10.125v0.26942c0 5.1268 3.7956 9.4942 8.7496 10.072-0.65367 0.52755-1.078 1.3258-1.0691 2.2216a0.65203 0.64829 0 0 0 0 4e-3l0.27097 23.978 4e-3 -0.0433c-0.0057 0.10531-0.03537 0.53367-0.03412 1.1845 0.0014 0.71136-0.01086 1.591 0.25773 2.6212 0.39731 1.5244 1.1034 3.0223 2.1805 4.3136 1.2091 1.4498 2.7316 2.5396 4.3478 3.2969 1.2161 0.56995 2.4585 0.81035 3.5002 1.0093 1.0603 0.20248 1.9355 0.31194 1.9355 0.31194a0.65203 0.64829 0 0 0 0.0254 4e-3c0.018 2e-3 0.0378 2e-3 0.056 4e-3 0 0 8.1387 0.80507 18.225 1.1546 10.084 0.34957 22.051 0.3131 30.395-1.6119 1.5717-0.36261 3.1158-1.0587 4.498-2.1508 1.4432-1.141 2.6278-2.6453 3.4661-4.2843 0.69747-1.3636 0.94343-2.7272 1.0926-3.8737 1.1629-8.9395 0.22675-23.685-0.10797-28.293 4.4902-0.98155 7.8144-5.1187 7.8144-9.9193v-0.26941c0-5.2948-4.0464-9.7691-9.238-10.105l0.57709-3.7227c0.23884-1.5411-0.83685-2.9989-2.3868-3.2366-1.5499-0.23736-3.0162 0.8321-3.2552 2.3732l-0.70545 4.5538h-6.9893l3.8807-24.513c0.75973-0.69631 3.7023-3.4014 5.4098-4.6992 1.7358-1.3192 3.4923-2.5306 5.2982-3.5145 0.55828-0.30413 1.2102-0.53963 1.8234-0.79505-1.0788 1.7775-2.1219 3.5773-2.9674 5.4511-0.99515 2.2054-1.7507 4.4468-2.4209 6.6317-0.94814 3.091-2.2106 8.7824-2.2106 8.7824-0.34088 1.5211 0.63351 3.0464 2.1632 3.3865 1.53 0.33886 3.0639-0.62993 3.406-2.1508 0 0 1.3244-5.8261 2.1026-8.3632 0.63949-2.0845 1.3213-4.099 2.1632-5.9646 0.9499-2.1051 2.0428-4.1373 3.2899-6.0416 1.1033-1.6849 4.3819-5.6228 4.3819-5.6228h-4e-3c0.84693-1.0082 0.83068-2.3325 0.25365-3.2837-0.57563-0.94899-1.7438-1.5776-3.0321-1.3081h-9e-3c-9e-3 2e-3 -2.7353 0.55102-4.5113 1.1628-2.4541 0.84529-4.8665 1.8816-7.1731 3.1382-1.798 0.97959-3.4066 2.1436-4.988 3.3055 0.55732-1.5399 1.2639-3.4943 1.2815-3.5404l9e-3 -0.0178c5e-5 -1.4e-4 4e-3 -0.0132 4e-3 -0.0132 0.0521-0.11093 1.7594-3.7394 2.6359-5.4941 1.0092-2.0207 3.2257-6.1997 3.2257-6.1997 0.59446-1.1231 0.3389-2.3801-0.37845-3.1941-0.71732-0.81399-1.933-1.2294-3.131-0.79098-7e-3 2e-3 -4.8013 1.6964-7.5684 3.2239-2.6571 1.4668-5.319 3.1856-7.6891 5.3574-2.5231 2.3123-4.3878 4.9674-6.1585 7.3669-0.16536 0.22419-0.28963 0.44379-0.41716 0.63716l-1.0447-10.488c-9.9e-4 -0.0176-2e-3 -0.0376-4e-3 -0.056a0.65203 0.64829 0 0 0-4e-3 -0.0301s-1.4306-11.095-2.9501-16.983c-0.81671-3.1654-2.8795-8.3244-2.8814-8.3292-0.34156-0.8708-1.242-1.2265-2.1286-1.4448a0.65203 0.64829 0 0 0-0.53329-0.36361zm0.0254 11.635c1.2854 5.0342 2.7972 16.146 2.804 16.196a0.65203 0.64829 0 0 0 4e-3 0.026l1.4664 14.717 0.93313 17.15v0.14994a0.65203 0.64829 0 0 0 4e-3 4e-3v0.0132a0.65203 0.64829 0 0 0 4e-3 0.0341c0.0447 0.88831 0.43749 1.6176 1.0065 2.0738 0.56895 0.45613 1.2849 0.64759 1.9783 0.61531 0.69339-0.0326 1.3814-0.28799 1.905-0.79506 0.52262-0.50627 0.85079-1.2728 0.81292-2.1594v-4e-3l-0.50782-12.9c0.48843-0.7922 2.7626-4.4859 4.1283-6.3364 1.8116-2.4549 3.4982-4.7916 5.4271-6.5592 1.7748-1.6265 3.9204-2.9998 6.1626-4.2672-0.9789 2.0092-2.3262 4.8657-2.3262 4.8657-0.0176 0.0377-0.0356 0.0779-0.0519 0.11549a0.65203 0.64829 0 0 0-4e-3 4e-3s-3.0115 7.1983-4.1588 11.467a0.65203 0.64829 0 0 0-4e-3 0.0132c-9e-3 0.0394-0.0179 0.0765-0.026 0.11547-2.0266 9.1971-3.0732 18.452-4.3177 27.548v-0.0178l-0.16298 1.0306a0.65203 0.64829 0 0 0 0 0.0174c-3e-3 0.0228 4.4e-4 6.2e-4 0 6e-3h-3.1977l-0.29899-7.7776c-0.0601-1.5578-1.3921-2.7826-2.9588-2.7236-1.5667 0.0601-2.7986 1.3841-2.7393 2.9418l0.29033 7.5594h-11.886l1.5336-27.938a0.65203 0.64829 0 0 0 0-0.0132c0-6e-5 4e-3 -0.0425 4e-3 -0.0428 4e-3 -0.0815 0.74345-11.267 1.333-16.697 0.67612-6.228 1.3538-12.393 2.7826-18.253 0.011-0.0498 0.0464-0.13041 0.0601-0.17967zm-26.43 18.015c1.401 0.70871 2.8383 1.3555 4.1155 2.2788 1.9903 1.4388 3.8766 3.2055 5.4658 5.0623 1.2362 1.4444 3.9693 5.4901 3.9693 5.4901a0.65203 0.64829 0 0 0 0 4e-3c0.0438 0.065 0.0926 0.1271 0.1416 0.18797 3e-3 4e-3 0.52593 0.6712 1.0793 1.5521 0.2614 0.41617 0.519 0.93443 0.70545 1.3553 0.0932 0.21036 0.1725 0.39967 0.2236 0.53471 0.0235 0.0623 0.0403 0.10754 0.0515 0.14136 0.40704 4.4963 0.15312 12.016-0.19763 18.283-0.17564 3.1382-0.37251 5.9806-0.50323 8.0598-0.0562 0.89446-0.0917 1.5674-0.11817 2.1594h-3.6128l-0.22157-3.8914c-0.0894-1.5539-1.439-2.753-3.0021-2.6684v5.2e-4c-1.5658 0.0863-2.7776 1.4326-2.6919 2.9889l0.20118 3.5703h-6.511c-0.13378-0.83675-1.7325-10.797-3.2028-16.372-1.0635-4.0323-2.308-8.1239-4.0549-12.079-0.92919-2.1039-2.2082-4.2242-3.5349-6.3065 2.0723 0.84553 3.857 1.9132 5.7021 3.2451 2.367 1.7086 4.55 3.4142 5.9904 5.3535 0.25428 0.34227 0.99245 1.758 1.4623 2.8648 0.01255 0.03 0.02333 0.0502 0.03005 0.0682 1.1877 5.6226 2.8467 12.78 2.8467 12.78l9e-3 0.0346c0.18269 0.84843 0.67244 1.4964 1.2902 1.8602 0.61869 0.36429 1.3402 0.45532 2.0124 0.33313 0.67224-0.12205 1.3142-0.46366 1.7634-1.022 0.37755-0.46924 0.47712-1.1486 0.45995-1.8469a0.65203 0.64829 0 0 0 0.0606-0.24358c-5e-3 -0.0416 0.0318-0.0657 0.0254-0.10686a0.65203 0.64829 0 0 0-4e-3 -0.0301l-4e-3 -0.026a0.65203 0.64829 0 0 0 0-0.0132l-0.12886-0.64576v-0.0132c-0.10737-0.61732-0.72851-4.0406-1.7287-8.8847v-4e-3l-0.33159-1.6843v-4e-3c-0.0267-0.13788-0.0646-0.27375-0.11154-0.40613a0.65203 0.64829 0 0 0-9e-3 -0.026s-0.14896-0.37413-0.18083-0.45732c-0.84486-3.897-1.735-8.0817-2.7219-11.117-1.0396-3.1971-2.406-6.2574-3.9653-9.1673-0.24718-0.46138-0.53691-0.83242-0.76962-1.1926zm-6.4641 50.787h65.882c2.2812 0 4.1497 1.8535 4.1497 4.4596v0.26942c0 2.6061-1.8692 4.4636-4.1497 4.4636h-65.882c-2.2805 0-4.1542-1.8581-4.1542-4.4636v-0.26942c0-2.6055 1.873-4.4596 4.1542-4.4596zm2.5396 14.871h59.67c0.28161 4.2812 1.1861 19.549 0.17165 27.347-0.11164 0.85848-0.3018 1.5866-0.52462 2.0222-0.4545 0.88856-1.2923 1.9103-1.9264 2.4116-0.72873 0.57615-1.368 0.86414-2.2365 1.0645-7.1327 1.6456-19.028 1.8139-28.916 1.4711-9.8776-0.3423-17.747-1.1203-17.834-1.1288-3e-3 -2.1e-4 -5e-3 2.7e-4 -9e-3 0 7e-3 7.8e-4 -0.67056-0.0878-1.5138-0.24817-0.42636-0.0819-0.91884-0.19682-1.3289-0.30791-0.41004-0.11119-0.78096-0.2412-0.81292-0.25625-0.92916-0.43536-1.8052-1.0894-2.3909-1.7917-0.45405-0.54434-0.83938-1.3215-1.0452-2.1077-5.01e-4 -2e-3 -0.0039-2e-3 -0.0046-4e-3 -0.0022-0.0176-8.22e-4 -0.0363-4e-3 -0.0647-0.0086-0.0795-0.01977-0.19014-0.03005-0.31601-0.0207-0.25209-0.0382-0.5677-0.03872-0.82548-0.0011-0.55032 0.02117-0.98835 0.02139-0.99212v-4e-3c0.0039-0.0653 0.0092-0.13195 0.0087-0.197a0.65203 0.64829 0 0 0 0-5.2e-4 0.65203 0.64829 0 0 0 0-5.1e-4 0.65203 0.64829 0 0 0 0-5e-4 0.65203 0.64829 0 0 0 0-4.9e-4 0.65203 0.64829 0 0 0 0-5.2e-4 0.65203 0.64829 0 0 0 0-4.9e-4 0.65203 0.64829 0 0 0 0-5.1e-4l-0.27072-23.978c-0.0098-0.83545-0.39554-1.578-0.9861-2.0921z" color="#000000" fill="#646464" style="paint-order:stroke fill markers"/></g></svg>
