<?xml version="1.0" encoding="UTF-8" standalone="no"?>
<!-- Created with Inkscape (http://www.inkscape.org/) -->

<svg
   width="512"
   height="512"
   inkscape:version="1.3 (0e150ed6c4, 2023-07-21)"
   sodipodi:docname="vasa.svg"
   version="1.1"
   viewBox="0 0 135.46531 135.47"
   xml:space="preserve"
   id="svg5"
   xmlns:inkscape="http://www.inkscape.org/namespaces/inkscape"
   xmlns:sodipodi="http://sodipodi.sourceforge.net/DTD/sodipodi-0.dtd"
   xmlns="http://www.w3.org/2000/svg"
   xmlns:svg="http://www.w3.org/2000/svg"><defs
     id="defs5">&#10;&#10;</defs><sodipodi:namedview
     bordercolor="#eeeeee"
     borderopacity="1"
     inkscape:current-layer="g5"
     inkscape:cx="191.62594"
     inkscape:cy="239.00209"
     inkscape:deskcolor="#505050"
     inkscape:document-units="mm"
     inkscape:pagecheckerboard="0"
     inkscape:pageopacity="0"
     inkscape:showpageshadow="0"
     inkscape:window-height="1046"
     inkscape:window-maximized="1"
     inkscape:window-width="1825"
     inkscape:window-x="84"
     inkscape:window-y="-11"
     inkscape:zoom="1.4142136"
     pagecolor="#505050"
     id="namedview1" /><g
     transform="translate(-75.423,-99.923)"
     inkscape:groupmode="layer"
     inkscape:label="Layer 1"
     id="g5"><path
       id="path2"
       style="fill:#646464;stroke-width:0.5;stroke-linecap:round;stroke-linejoin:round;paint-order:stroke fill markers;opacity:1;fill-opacity:1"
       inkscape:transform-center-x="0.90920701"
       inkscape:transform-center-y="-0.90920507"
       transform="matrix(0.23985,0,0,0.23985,133.84355,105.61612)"
       d="m 187.92612,97.959524 -20.71314,8.579666 -20.71314,-8.579665 -8.57966,-20.713141 8.57966,-20.713141 20.71314,-8.579664 20.71314,8.579664 8.57967,20.713141 z" /><path
       id="path3"
       style="fill:#646464;stroke-width:0.5;stroke-linecap:round;stroke-linejoin:round;paint-order:stroke fill markers;opacity:1;fill-opacity:1"
       inkscape:transform-center-x="0.90920776"
       inkscape:transform-center-y="-0.90920596"
       transform="matrix(0.23985,0,0,0.23985,109.94956,89.922114)"
       d="m 187.92612,97.959524 -20.71314,8.579666 -20.71314,-8.579665 -8.57966,-20.713141 8.57966,-20.713141 20.71314,-8.579664 20.71314,8.579664 8.57967,20.713141 z" /><path
       id="path4"
       style="fill:#646464;stroke-width:0.5;stroke-linecap:round;stroke-linejoin:round;paint-order:stroke fill markers;opacity:1;fill-opacity:1"
       inkscape:transform-center-x="0.90920777"
       inkscape:transform-center-y="-0.90920656"
       transform="matrix(0.23985,0,0,0.23985,126.76656,86.927115)"
       d="m 187.92612,97.959524 -20.71314,8.579666 -20.71314,-8.579665 -8.57966,-20.713141 8.57966,-20.713141 20.71314,-8.579664 20.71314,8.579664 8.57967,20.713141 z" /><path
       id="path7"
       style="display:inline;opacity:1;fill:#646464;fill-opacity:1;stroke-width:0.25875"
       d="m 116.59176,160.36755 c 0.006,0.64109 0.003,1.28221 0.004,1.92396 0.001,1.58681 0.003,1.43076 0.004,8.21031 3.8e-4,3.34552 1e-5,7.57993 0,12.84553 -1.81933,-0.41577 -3.44327,-1.67797 -4.78949,-3.38541 -0.0702,-0.0891 -0.0987,-0.0718 -0.0987,-0.0718 -0.0407,-0.008 -0.0788,0.003 -0.12144,0.0269 -9.35068,5.42081 -15.973582,15.5239 -15.973582,26.70653 0,8.68109 3.606019,16.98443 9.761922,22.7449 h -4.88096 c -0.975799,0 -1.766863,0.50495 -1.766863,1.12761 0,3.52403 4.491423,6.39098 10.012553,6.39098 h 17.69186 c 5.52117,0 10.01308,-2.86695 10.01308,-6.39098 -2.6e-4,-0.62283 -0.79131,-1.12761 -1.76738,-1.12761 v -0.001 h -4.88148 c 6.15617,-5.75996 9.76244,-14.06349 9.76244,-22.74491 0,-11.1105 -6.16591,-21.37392 -15.42063,-26.82899 -0.0138,-0.008 -0.026,-0.009 -0.0393,-0.008 -0.009,9.3e-4 -0.0178,0.002 -0.0258,0.0109 -1.65267,1.86627 -3.39269,3.36812 -5.47629,3.65723 0,-5.32715 3.8e-4,-9.57865 0,-12.95199 -0.001,-6.7797 -0.003,-6.62281 -0.004,-8.21031 0.006,-0.66294 0.007,-1.92138 0.007,-1.92138 l -5.2e-4,5.2e-4 z m 7.33204,22.40566 c 7.43875,5.20213 12.10447,14.2082 12.10447,23.84926 0,8.92056 -3.95203,17.37118 -10.60427,22.74491 h -15.67023 c -6.65198,-5.37339 -10.604264,-13.82402 -10.604264,-22.74491 h 10e-4 c 0,-9.83079 4.631064,-18.46493 12.326684,-23.61464 0.82284,1.75389 4.11856,2.56168 6.41166,2.50017 2.20775,-0.0592 5.10787,-1.17138 6.03492,-2.73479 z m -21.41576,48.84887 h 30.15911 c -0.77101,1.7339 -3.27419,3.00764 -6.2344,3.00764 h -17.69083 c -2.96022,0 -5.46313,-1.27374 -6.23388,-3.00764 z"
       sodipodi:nodetypes="cccccccscssssccccsccccccccccscccccccccssc" /><path
       style="color:#000000;opacity:1;fill:#646464;stroke-linecap:round;stroke-linejoin:round;-inkscape-stroke:none;paint-order:stroke fill markers;fill-opacity:1"
       d="m 117.60027,183.50128 c 0,-5.355 -2.4e-4,-9.61313 -6.2e-4,-12.99894 -0.002,-13.55929 -0.005,-13.12828 -0.005,-13.12828"
       id="path17" /><path
       id="path19"
       style="color:#000000;fill:#646464;stroke-linecap:round;stroke-linejoin:round;-inkscape-stroke:none;paint-order:stroke fill markers;opacity:1;fill-opacity:1"
       d="M 117.59948 143.4532 C 117.14577 143.4532 116.83026 143.71997 116.676 143.90796 C 116.52174 144.09595 116.44848 144.26127 116.38092 144.43146 C 116.24579 144.77185 116.16005 145.14191 116.08584 145.58387 C 115.93742 146.46781 115.85536 147.61532 115.85536 148.88452 C 115.85536 149.50408 115.87543 150.09385 115.91272 150.63847 C 115.67287 150.14724 115.39617 149.62609 115.08588 149.08865 C 114.45129 147.9895 113.80581 147.03949 113.2353 146.34818 C 112.95005 146.00254 112.69155 145.72221 112.40432 145.49498 C 112.26072 145.38137 112.11308 145.27574 111.88548 145.19008 C 111.77169 145.14725 111.61324 145.10731 111.43433 145.10637 L 111.43485 145.10688 C 111.25594 145.10594 111.05666 145.14384 110.86019 145.25727 C 110.46727 145.48412 110.32718 145.87362 110.2876 146.11357 C 110.24803 146.35351 110.26721 146.53288 110.2938 146.71406 C 110.34697 147.07641 110.45904 147.44145 110.61576 147.86131 C 110.92919 148.70103 111.43072 149.73414 112.06531 150.83329 C 112.3747 151.36916 112.68665 151.86906 112.99086 152.32161 C 112.53838 152.01683 112.03867 151.70507 111.50254 151.39554 C 110.40339 150.76094 109.36718 150.25993 108.52746 149.9465 C 108.1076 149.78978 107.74567 149.6772 107.38331 149.62403 C 107.20215 149.59745 107.0212 149.57979 106.78127 149.61938 C 106.54134 149.65898 106.15131 149.79646 105.92445 150.18939 C 105.6976 150.58231 105.77263 150.99019 105.85831 151.21777 C 105.94398 151.44536 106.05063 151.59146 106.16424 151.73507 C 106.39146 152.02229 106.6692 152.28131 107.01485 152.56656 C 107.70615 153.13706 108.65926 153.78202 109.75842 154.41662 C 110.29384 154.72575 110.81265 155.00275 111.30204 155.24243 C 110.75811 155.20526 110.16931 155.18559 109.55068 155.18559 C 108.28148 155.18559 107.13395 155.2676 106.25002 155.41607 C 105.80806 155.49027 105.438 155.57602 105.09761 155.71115 C 104.92742 155.77875 104.7621 155.85145 104.57411 156.00571 C 104.3861 156.15996 104.11931 156.47598 104.11935 156.92971 C 104.11938 157.3834 104.38613 157.6974 104.57411 157.85164 C 104.76211 158.00589 104.92739 158.08073 105.09761 158.14827 C 105.43799 158.28339 105.80807 158.36707 106.25002 158.44128 C 107.13395 158.5897 108.28149 158.67383 109.55068 158.67383 C 110.17004 158.67383 110.7591 158.65368 111.30359 158.61595 C 110.81305 158.85556 110.29239 159.1325 109.75584 159.44228 C 108.65668 160.07688 107.7046 160.72338 107.0133 161.29389 C 106.66765 161.57913 106.38887 161.83662 106.16165 162.12383 C 106.04802 162.26745 105.94208 162.41364 105.85624 162.64113 C 105.77057 162.86872 105.69707 163.27556 105.92394 163.66848 C 106.15079 164.06141 106.53979 164.20147 106.77972 164.24107 C 107.01966 164.28066 107.19956 164.26145 107.38073 164.23487 C 107.74308 164.1817 108.10502 164.06911 108.52488 163.9124 C 109.3646 163.59898 110.4008 163.09796 111.49996 162.46336 C 112.0364 162.15364 112.53609 161.8412 112.9888 161.53626 C 112.68411 161.98939 112.37262 162.49042 112.06273 163.02716 C 111.42813 164.12632 110.92509 165.161 110.61162 166.0007 C 110.4549 166.42055 110.34232 166.78301 110.28915 167.14536 C 110.2626 167.32655 110.2449 167.50695 110.2845 167.74689 C 110.3241 167.98682 110.46416 168.37633 110.85709 168.60319 C 111.25001 168.83004 111.6553 168.75552 111.88289 168.66985 C 112.11047 168.58417 112.25813 168.47856 112.40174 168.36495 C 112.68896 168.13773 112.94643 167.85895 113.23168 167.5133 C 113.80218 166.82201 114.44869 165.87044 115.08329 164.77128 C 115.39263 164.23549 115.66916 163.71549 115.90859 163.2256 C 115.87133 163.77008 115.85174 164.35914 115.85174 164.97851 C 115.85173 166.2477 115.93376 167.39317 116.08222 168.2771 C 116.15643 168.71907 116.24166 169.09119 116.37679 169.43158 C 116.44439 169.60177 116.5176 169.76708 116.67187 169.95507 C 116.82612 170.14306 117.14216 170.41035 117.59586 170.41035 C 118.04958 170.41036 118.36353 170.14306 118.51779 169.95507 C 118.67205 169.76709 118.74696 169.60183 118.81442 169.43158 C 118.94953 169.09117 119.03323 168.71907 119.10744 168.2771 C 119.25586 167.39318 119.33999 166.24771 119.33999 164.97851 C 119.33999 164.35953 119.3198 163.77083 119.28211 163.22664 C 119.52202 163.71662 119.79939 164.23667 120.10895 164.77283 C 120.74356 165.872 121.38748 166.82304 121.95798 167.51434 C 122.24324 167.85999 122.50329 168.13928 122.79051 168.3665 C 122.93411 168.48011 123.08022 168.58675 123.3078 168.67243 C 123.53539 168.75811 123.94222 168.83159 124.33515 168.60474 C 124.72807 168.37788 124.86656 167.9899 124.90619 167.74999 C 124.94576 167.51004 124.92812 167.32911 124.90154 167.14794 C 124.84837 166.78559 124.73475 166.42159 124.57804 166.00173 C 124.26461 165.16202 123.76463 164.12787 123.13003 163.02871 C 122.82056 162.4927 122.50815 161.9928 122.20345 161.54039 C 122.65675 161.84513 123.15746 162.1573 123.69383 162.46697 C 124.79299 163.10157 125.82609 163.6031 126.66582 163.91653 C 127.08567 164.07325 127.44916 164.18428 127.81151 164.23745 C 127.99268 164.26403 128.17207 164.28325 128.41201 164.24365 C 128.65194 164.20406 129.043 164.06502 129.26986 163.6721 C 129.49671 163.27917 129.42065 162.87285 129.33497 162.64526 C 129.24929 162.41768 129.14368 162.27003 129.03007 162.12642 C 128.80285 161.8392 128.52407 161.58172 128.17842 161.29647 C 127.48712 160.72597 126.53711 160.0805 125.43795 159.4459 C 124.90179 159.13634 124.38136 158.8593 123.89072 158.61957 C 124.43568 158.6573 125.0253 158.67796 125.64467 158.67797 C 126.91388 158.67797 128.05933 158.59384 128.94325 158.44542 C 129.38522 158.37122 129.75734 158.28753 130.09773 158.1524 C 130.26792 158.0848 130.43324 158.00952 130.62123 157.85526 C 130.80924 157.70101 131.07602 157.38757 131.07599 156.93384 C 131.076 156.48013 130.80922 156.1641 130.62123 156.00985 C 130.43324 155.85559 130.26793 155.78234 130.09773 155.71477 C 129.75734 155.57964 129.38522 155.4939 128.94325 155.41969 C 128.05932 155.27126 126.91387 155.18921 125.64467 155.1892 C 125.0253 155.18921 124.43568 155.2093 123.89072 155.24657 C 124.38154 155.00684 124.90259 154.7297 125.4395 154.41972 C 126.53865 153.78513 127.48868 153.13964 128.17997 152.56914 C 128.52562 152.2839 128.80595 152.02538 129.03317 151.73817 C 129.14672 151.5945 129.25318 151.44809 129.33859 151.22036 C 129.42426 150.99277 129.49772 150.58594 129.27089 150.193 C 129.04404 149.80008 128.65452 149.66002 128.41459 149.62041 C 128.17466 149.58081 127.99527 149.60003 127.8141 149.62662 C 127.45175 149.67978 127.08774 149.7934 126.66788 149.95012 C 125.82817 150.26355 124.79402 150.76353 123.69487 151.39813 C 123.15849 151.7078 122.65816 152.02031 122.20551 152.32523 C 122.51067 151.87227 122.82319 151.37167 123.13313 150.83484 C 123.76773 149.73568 124.26768 148.70152 124.58114 147.86182 C 124.73786 147.44197 124.85147 147.07796 124.90464 146.71561 C 124.93119 146.53442 124.94889 146.35402 124.90929 146.11408 C 124.86969 145.87415 124.7317 145.48567 124.33877 145.25882 C 123.94585 145.03196 123.53849 145.10544 123.3109 145.19112 C 123.08331 145.27679 122.93567 145.38241 122.79206 145.49602 C 122.50484 145.72324 122.24634 146.00357 121.96108 146.34922 C 121.39058 147.04051 120.74665 147.99156 120.11205 149.09072 C 119.80239 149.62707 119.52563 150.14721 119.28572 150.63743 C 119.32343 150.0931 119.3436 149.5037 119.3436 148.88452 C 119.3436 147.61532 119.25999 146.46781 119.11157 145.58387 C 119.03737 145.14191 118.95369 144.77185 118.81856 144.43146 C 118.75096 144.26127 118.67567 144.09595 118.52141 143.90796 C 118.36716 143.71997 118.05319 143.4532 117.59948 143.4532 z M 116.81346 154.00475 C 116.9886 154.16173 117.25379 154.31637 117.59948 154.31637 C 117.9448 154.31637 118.20883 154.16207 118.38343 154.00527 C 118.45676 154.22851 118.608 154.49416 118.90693 154.66674 C 119.20516 154.83893 119.51005 154.83733 119.73945 154.78922 C 119.69128 155.01925 119.69039 155.32595 119.86296 155.62485 C 120.03517 155.92306 120.30042 156.07483 120.5234 156.14834 C 120.36675 156.32347 120.21231 156.58838 120.2123 156.93333 C 120.21231 157.27866 120.36711 157.54216 120.52392 157.71676 C 120.30017 157.78918 120.03276 157.93975 119.85986 158.23922 C 119.68755 158.53768 119.68949 158.84413 119.7379 159.07433 C 119.50826 159.02577 119.20199 159.02355 118.90279 159.19629 C 118.60405 159.36878 118.45214 159.63506 118.37878 159.85828 C 118.20417 159.70139 117.94085 159.54615 117.59535 159.54615 C 117.25096 159.54615 116.98655 159.70036 116.8114 159.85673 C 116.73864 159.63354 116.58767 159.36751 116.28842 159.19474 C 115.99019 159.02256 115.68421 159.0234 115.45434 159.07123 C 115.50232 158.84132 115.50367 158.53512 115.33135 158.23664 C 115.15929 157.93861 114.8938 157.78619 114.6709 157.71263 C 114.8275 157.538 114.98202 157.27416 114.982 156.92919 C 114.98201 156.58444 114.82745 156.31987 114.6709 156.14472 C 114.8945 156.07157 115.16158 155.91974 115.33393 155.62123 C 115.50637 155.32255 115.50364 155.01693 115.45486 154.78715 C 115.68496 154.83543 115.99182 154.83741 116.291 154.66467 C 116.5897 154.49223 116.74048 154.22759 116.81346 154.00475 z " /><path
       id="path30"
       style="display:inline;opacity:1;fill:#646464;fill-opacity:1;stroke-width:0.25875"
       d="m 167.29741,101.42527 c -0.97448,-0.0915 -1.8322,0.62579 -1.92189,1.59736 l -3.97505,43.15967 h -1.33329 v -25.32673 c 0,-0.97581 -0.79132,-1.76686 -1.76686,-1.76686 -0.97579,0 -1.76686,0.79132 -1.76686,1.76686 v 25.32724 h -0.15555 l -3.97556,-43.15966 c -0.0894,-0.97184 -0.94822,-1.68732 -1.9219,-1.59736 -0.97183,0.0894 -1.68731,0.94955 -1.59736,1.92137 l 3.94508,42.83462 h -2.89033 l -5.26389,-17.01437 c -0.28866,-0.93241 -1.27864,-1.45399 -2.21026,-1.16533 -0.93241,0.28841 -1.45399,1.27786 -1.16533,2.20974 l 5.3042,17.14356 c -8.83225,7.79358 -14.51549,22.11088 -15.29557,38.28853 l 3.43192,3.82725 h 0.001 c 0,-16.69578 5.68758,-32.20322 14.53436,-39.75721 h 23.3516 c 8.84703,7.55478 14.53487,23.0617 14.53487,39.75721 0,13.97607 -3.95199,27.21568 -10.60426,35.63488 h -31.21385 c -2.60468,-3.29643 -4.78814,-7.3393 -6.48969,-11.86882 -0.38636,1.79746 -0.93166,3.5488 -1.617,5.23753 1.11085,2.38221 2.35379,4.61201 3.73217,6.63284 h -4.88096 c -0.9758,0 -1.76686,0.79133 -1.76686,1.76686 0,0.86202 0.12079,1.69427 0.3266,2.49293 h 0.0336 v 0.001 c 0.97607,0 1.76712,0.50478 1.76738,1.12761 0,0.66384 -0.15963,1.30447 -0.45528,1.90691 1.79545,2.69953 4.86212,4.48407 8.34026,4.48407 h 33.23497 c 5.52116,0 10.01307,-4.49139 10.01307,-10.01255 -2.6e-4,-0.9758 -0.79131,-1.76738 -1.76738,-1.76738 l -5.1e-4,-0.001 h -4.88096 c 6.15617,-9.0243 9.76243,-22.03346 9.76243,-35.63488 0,-18.29178 -6.25232,-34.72989 -16.3162,-42.89508 -0.31486,-0.25559 -0.70779,-0.39482 -1.11314,-0.39482 h -1.68624 l 5.5228,-23.749 c 0.22092,-0.95067 -0.36997,-1.89966 -1.32037,-2.12086 -0.95014,-0.21987 -1.90017,0.36997 -2.12137,1.32037 l -5.70884,24.54949 h -3.00195 l 3.94559,-42.83461 c 0.0894,-0.97183 -0.62552,-1.83169 -1.59736,-1.92138 z m -29.20049,127.21294 h 45.70273 c -0.77101,2.71652 -3.27419,4.71249 -6.2344,4.71249 h -33.23393 c -2.9602,0 -5.46365,-1.99597 -6.2344,-4.71249 z"
       sodipodi:nodetypes="ccccsssccccccccccccccccscccccsscccccssccccscsccccccccccssc" /></g></svg>
